<svg xmlns="http://www.w3.org/2000/svg" viewBox="0 0 200 200" fill="none">
  <g stroke="#6F8056" stroke-width="1.6" stroke-linecap="round" fill="none">
    <path d="M6 180 C 30 140, 50 110, 80 90 S 140 50, 180 30"/>
    <path d="M30 130 C 50 110, 60 90, 70 70"/>
    <path d="M70 110 C 90 90, 100 70, 120 50"/>
    <path d="M120 70 C 140 50, 150 30, 170 14"/>
  </g>
  <g fill="#98A77C" stroke="#5C3D1F" stroke-width="0.6">
    <ellipse cx="22" cy="156" rx="9" ry="4" transform="rotate(-40 22 156)"/>
    <ellipse cx="44" cy="124" rx="10" ry="4.5" transform="rotate(50 44 124)"/>
    <ellipse cx="62" cy="100" rx="9" ry="4" transform="rotate(-30 62 100)"/>
    <ellipse cx="84" cy="78"  rx="10" ry="4.5" transform="rotate(40 84 78)"/>
    <ellipse cx="106" cy="60" rx="9" ry="4" transform="rotate(-20 106 60)"/>
    <ellipse cx="132" cy="42" rx="10" ry="4.5" transform="rotate(30 132 42)"/>
    <ellipse cx="156" cy="26" rx="9" ry="4" transform="rotate(-10 156 26)"/>
  </g>
  <!-- mushrooms -->
  <g transform="translate(20 110) scale(0.5)">
    <path d="M0 22 Q22 -6 44 22 Q34 26 22 26 Q10 26 0 22 Z" fill="#C57A4F" stroke="#5C3D1F" stroke-width="0.9"/>
    <ellipse cx="14" cy="14" rx="3" ry="2" fill="#FFFBEC"/>
    <ellipse cx="26" cy="8" rx="4" ry="2.6" fill="#FFFBEC"/>
    <path d="M14 26 Q16 38 14 46 L30 46 Q28 38 30 26 Z" fill="#FBF6EE" stroke="#5C3D1F" stroke-width="0.7"/>
  </g>
  <!-- berry cluster -->
  <g fill="#C57A4F" stroke="#5C3D1F" stroke-width="0.4">
    <circle cx="100" cy="80" r="3"/>
    <circle cx="106" cy="84" r="2.5"/>
    <circle cx="110" cy="78" r="2.5"/>
  </g>
  <!-- daisy -->
  <g transform="translate(150 56) scale(0.32)">
    <g fill="#FFFBEC" stroke="#5C3D1F" stroke-width="0.9">
      <ellipse cx="0" cy="-22" rx="7" ry="14"/><ellipse cx="22" cy="0" rx="7" ry="14" transform="rotate(90 22 0)"/>
      <ellipse cx="0" cy="22" rx="7" ry="14"/><ellipse cx="-22" cy="0" rx="7" ry="14" transform="rotate(90 -22 0)"/>
      <ellipse cx="16" cy="-16" rx="7" ry="14" transform="rotate(45 16 -16)"/>
      <ellipse cx="16" cy="16" rx="7" ry="14" transform="rotate(135 16 16)"/>
      <ellipse cx="-16" cy="16" rx="7" ry="14" transform="rotate(45 -16 16)"/>
      <ellipse cx="-16" cy="-16" rx="7" ry="14" transform="rotate(135 -16 -16)"/>
    </g>
    <circle r="9" fill="#E8B547" stroke="#5C3D1F"/>
  </g>
</svg>
