<svg xmlns="http://www.w3.org/2000/svg" viewBox="0 0 80 100" fill="none">
  <defs>
    <linearGradient id="cap" x1="0%" y1="0%" x2="0%" y2="100%">
      <stop offset="0%" stop-color="#D88656"/>
      <stop offset="100%" stop-color="#A55F38"/>
    </linearGradient>
  </defs>
  <!-- cap -->
  <path d="M10 50 Q40 8 70 50 Q60 56 40 56 Q20 56 10 50 Z" fill="url(#cap)" stroke="#5C3D1F" stroke-width="1.4"/>
  <!-- spots -->
  <g fill="#FFFBEC" opacity="0.92" stroke="#5C3D1F" stroke-width="0.6">
    <ellipse cx="26" cy="34" rx="4" ry="3"/>
    <ellipse cx="42" cy="22" rx="5" ry="3.5"/>
    <ellipse cx="56" cy="36" rx="3.5" ry="2.6"/>
    <ellipse cx="36" cy="42" rx="3" ry="2"/>
  </g>
  <!-- stem -->
  <path d="M28 56 Q30 80 26 92 L52 92 Q50 80 52 56 Z" fill="#FBF6EE" stroke="#5C3D1F" stroke-width="1.2"/>
  <!-- gills -->
  <g stroke="#A88030" stroke-width="0.6" opacity="0.6">
    <line x1="32" y1="56" x2="32" y2="62"/>
    <line x1="38" y1="56" x2="38" y2="62"/>
    <line x1="42" y1="56" x2="42" y2="62"/>
    <line x1="48" y1="56" x2="48" y2="62"/>
  </g>
  <!-- ground line -->
  <path d="M16 92 Q40 96 64 92" stroke="#6F8056" stroke-width="1.4" fill="none" stroke-linecap="round"/>
</svg>
