<svg xmlns="http://www.w3.org/2000/svg" viewBox="0 0 120 120" fill="none">
  <defs>
    <radialGradient id="sg" cx="50%" cy="50%" r="50%">
      <stop offset="0%" stop-color="#F8D165"/>
      <stop offset="55%" stop-color="#E8B547"/>
      <stop offset="100%" stop-color="#C99936" stop-opacity="0.85"/>
    </radialGradient>
  </defs>
  <g stroke="#A88030" stroke-width="1.4" stroke-linecap="round" opacity="0.9">
    <!-- 12 hand-wobbly rays -->
    <path d="M60 6 L60 22"/>
    <path d="M88 12 L82 26"/>
    <path d="M110 36 L96 44"/>
    <path d="M114 60 L98 60"/>
    <path d="M110 84 L96 76"/>
    <path d="M88 108 L82 94"/>
    <path d="M60 114 L60 98"/>
    <path d="M32 108 L38 94"/>
    <path d="M10 84 L24 76"/>
    <path d="M6 60 L22 60"/>
    <path d="M10 36 L24 44"/>
    <path d="M32 12 L38 26"/>
  </g>
  <circle cx="60" cy="60" r="22" fill="url(#sg)"/>
  <circle cx="60" cy="60" r="22" fill="none" stroke="#A88030" stroke-width="1.2" opacity="0.7"/>
  <!-- soft watercolor bleed -->
  <circle cx="60" cy="60" r="30" fill="#F5C84B" opacity="0.12"/>
</svg>
